# xmcd
#
# Track frame offsets:
#	150
#	70966
#	137145
#	162381
#	214334
#	255126
#	283528
#
# Disc length: 4196 seconds
#
# Revision: 1
# Processed by: cddbd v1.5.2PL0 Copyright (c) Steve Scherf et al.
# Submitted via: audiograbber 1.83.01
#
DISCID=66106207
DTITLE=Grateful Dead - 78-04-21 Rupp Arena, Lexington KY
DYEAR=1900
DGENRE=
TTITLE0=Playing In The Band
TTITLE1=Drums
TTITLE2=Jam
TTITLE3=Stella Blue
TTITLE4=Truckin'
TTITLE5=Playing In The Band
TTITLE6=Werewolves Of London
EXTD=
EXTT0=
EXTT1=
EXTT2=
EXTT3=
EXTT4=
EXTT5=
EXTT6=
PLAYORDER=
